%TF.GenerationSoftware,KiCad,Pcbnew,10.0.2*%
%TF.CreationDate,2026-05-24T11:42:40+03:00*%
%TF.ProjectId,Bank_Security_PCB,42616e6b-5f53-4656-9375-726974795f50,rev?*%
%TF.SameCoordinates,Original*%
%TF.FileFunction,Copper,L1,Top*%
%TF.FilePolarity,Positive*%
%FSLAX46Y46*%
G04 Gerber Fmt 4.6, Leading zero omitted, Abs format (unit mm)*
G04 Created by KiCad (PCBNEW 10.0.2) date 2026-05-24 11:42:40*
%MOMM*%
%LPD*%
G01*
G04 APERTURE LIST*
G04 Aperture macros list*
%AMRoundRect*
0 Rectangle with rounded corners*
0 $1 Rounding radius*
0 $2 $3 $4 $5 $6 $7 $8 $9 X,Y pos of 4 corners*
0 Add a 4 corners polygon primitive as box body*
4,1,4,$2,$3,$4,$5,$6,$7,$8,$9,$2,$3,0*
0 Add four circle primitives for the rounded corners*
1,1,$1+$1,$2,$3*
1,1,$1+$1,$4,$5*
1,1,$1+$1,$6,$7*
1,1,$1+$1,$8,$9*
0 Add four rect primitives between the rounded corners*
20,1,$1+$1,$2,$3,$4,$5,0*
20,1,$1+$1,$4,$5,$6,$7,0*
20,1,$1+$1,$6,$7,$8,$9,0*
20,1,$1+$1,$8,$9,$2,$3,0*%
G04 Aperture macros list end*
%TA.AperFunction,ComponentPad*%
%ADD10C,2.400000*%
%TD*%
%TA.AperFunction,ComponentPad*%
%ADD11RoundRect,0.250001X-0.949999X-0.949999X0.949999X-0.949999X0.949999X0.949999X-0.949999X0.949999X0*%
%TD*%
%TA.AperFunction,ComponentPad*%
%ADD12R,1.800000X1.800000*%
%TD*%
%TA.AperFunction,ComponentPad*%
%ADD13C,1.800000*%
%TD*%
%TA.AperFunction,ComponentPad*%
%ADD14C,1.600000*%
%TD*%
%TA.AperFunction,ComponentPad*%
%ADD15C,1.700000*%
%TD*%
%TA.AperFunction,ComponentPad*%
%ADD16R,1.700000X1.700000*%
%TD*%
%TA.AperFunction,ComponentPad*%
%ADD17C,1.500000*%
%TD*%
%TA.AperFunction,ComponentPad*%
%ADD18RoundRect,0.250000X0.550000X-0.550000X0.550000X0.550000X-0.550000X0.550000X-0.550000X-0.550000X0*%
%TD*%
%TA.AperFunction,Conductor*%
%ADD19C,0.200000*%
%TD*%
G04 APERTURE END LIST*
D10*
%TO.P,J5,2,Pin_2_2*%
%TO.N,/NO1*%
X255500000Y-77500000D03*
D11*
%TO.P,J5,1,Pin_1_1*%
%TO.N,GND*%
X250420000Y-77500000D03*
%TD*%
D12*
%TO.P,D1,1,K_1*%
%TO.N,GND*%
X238960000Y-85250000D03*
D13*
%TO.P,D1,2,A_2*%
%TO.N,Net-(D1-A)*%
X241500000Y-85250000D03*
%TD*%
D14*
%TO.P,R2,2*%
%TO.N,Net-(D1-A)*%
X245000000Y-92250000D03*
%TO.P,R2,1*%
%TO.N,Net-(U1-RD3{slash}PSP3)*%
X237380000Y-92250000D03*
%TD*%
D15*
%TO.P,J7,4,Pin_4_4*%
%TO.N,+3.3V*%
X230250000Y-60120000D03*
%TO.P,J7,3,Pin_3_3*%
%TO.N,Net-(J7-Pin_3)*%
X230250000Y-57580000D03*
%TO.P,J7,2,Pin_2_2*%
%TO.N,Net-(J7-Pin_2)*%
X230250000Y-55040000D03*
D16*
%TO.P,J7,1,Pin_1_1*%
%TO.N,+5V*%
X230250000Y-52500000D03*
%TD*%
%TO.P,J10,1,Pin_1_1*%
%TO.N,unconnected-(J10-Pin_1-Pad1)*%
X156500000Y-64010000D03*
D15*
%TO.P,J10,2,Pin_2_2*%
%TO.N,unconnected-(J10-Pin_2-Pad2)*%
X156500000Y-66550000D03*
%TO.P,J10,3,Pin_3_3*%
%TO.N,unconnected-(J10-Pin_3-Pad3)*%
X156500000Y-69090000D03*
%TO.P,J10,4,Pin_4_4*%
%TO.N,unconnected-(J10-Pin_4-Pad4)*%
X156500000Y-71630000D03*
%TO.P,J10,5,Pin_5_5*%
%TO.N,unconnected-(J10-Pin_5-Pad5)*%
X156500000Y-74170000D03*
%TO.P,J10,6,Pin_6_6*%
%TO.N,Net-(J10-Pin_6)*%
X156500000Y-76710000D03*
%TO.P,J10,7,Pin_7_7*%
%TO.N,Net-(J1-Pin_8)*%
X156500000Y-79250000D03*
%TO.P,J10,8,Pin_8_8*%
%TO.N,Net-(J10-Pin_8)*%
X156500000Y-81790000D03*
%TO.P,J10,9,Pin_9_9*%
%TO.N,Net-(J1-Pin_10)*%
X156500000Y-84330000D03*
%TO.P,J10,10,Pin_10_10*%
%TO.N,+3.3V*%
X156500000Y-86870000D03*
%TO.P,J10,11,Pin_11_11*%
X156500000Y-89410000D03*
%TO.P,J10,12,Pin_12_12*%
X156500000Y-91950000D03*
%TD*%
%TO.P,J4,6,Pin_6_6*%
%TO.N,unconnected-(J4-Pin_6-Pad6)*%
X218500000Y-85750000D03*
%TO.P,J4,5,Pin_5_5*%
%TO.N,unconnected-(J4-Pin_5-Pad5)*%
X218500000Y-83210000D03*
%TO.P,J4,4,Pin_4_4*%
%TO.N,+BATT*%
X218500000Y-80670000D03*
%TO.P,J4,3,Pin_3_3*%
%TO.N,/NO1*%
X218500000Y-78130000D03*
%TO.P,J4,2,Pin_2_2*%
%TO.N,+BATT (backup)*%
X218500000Y-75590000D03*
D16*
%TO.P,J4,1,Pin_1_1*%
%TO.N,+12V*%
X218500000Y-73050000D03*
%TD*%
D17*
%TO.P,Y1,1,1_1*%
%TO.N,Net-(U1-OSC2{slash}CLKO)*%
X242370000Y-124500000D03*
%TO.P,Y1,2,2_2*%
%TO.N,Net-(U1-OSC1{slash}CLKI)*%
X247250000Y-124500000D03*
%TD*%
D18*
%TO.P,U1,1,~{MCLR}/Vpp_1*%
%TO.N,Net-(U1-~{MCLR}{slash}Vpp)*%
X197900000Y-115740000D03*
D14*
%TO.P,U1,2,AN0/RA0_2*%
%TO.N,Net-(J3-Pin_2)*%
X200440000Y-115740000D03*
%TO.P,U1,3,AN1/RA1_3*%
%TO.N,unconnected-(U1-AN1{slash}RA1-Pad3)*%
X202980000Y-115740000D03*
%TO.P,U1,4,CVref/Vref-/AN2/RA2_4*%
%TO.N,unconnected-(U1-CVref{slash}Vref-{slash}AN2{slash}RA2-Pad4)*%
X205520000Y-115740000D03*
%TO.P,U1,5,Vref+/AN3/RA3_5*%
%TO.N,unconnected-(U1-Vref+{slash}AN3{slash}RA3-Pad5)*%
X208060000Y-115740000D03*
%TO.P,U1,6,C1OUT/T0CKI/RA4_6*%
%TO.N,unconnected-(U1-C1OUT{slash}T0CKI{slash}RA4-Pad6)*%
X210600000Y-115740000D03*
%TO.P,U1,7,~{SS}/C2OUT/AN4/RA5_7*%
%TO.N,unconnected-(U1-~{SS}{slash}C2OUT{slash}AN4{slash}RA5-Pad7)*%
X213140000Y-115740000D03*
%TO.P,U1,8,RE0/~{RD}/AN5_8*%
%TO.N,unconnected-(U1-RE0{slash}~{RD}{slash}AN5-Pad8)*%
X215680000Y-115740000D03*
%TO.P,U1,9,RE1/~{WR}/AN6_9*%
%TO.N,unconnected-(U1-RE1{slash}~{WR}{slash}AN6-Pad9)*%
X218220000Y-115740000D03*
%TO.P,U1,10,RE2/~{CS}/AN7_10*%
%TO.N,unconnected-(U1-RE2{slash}~{CS}{slash}AN7-Pad10)*%
X220760000Y-115740000D03*
%TO.P,U1,11,VDD_11*%
%TO.N,+5V*%
X223300000Y-115740000D03*
%TO.P,U1,12,VSS_12*%
%TO.N,GND*%
X225840000Y-115740000D03*
%TO.P,U1,13,OSC1/CLKI_13*%
%TO.N,Net-(U1-OSC1{slash}CLKI)*%
X228380000Y-115740000D03*
%TO.P,U1,14,OSC2/CLKO_14*%
%TO.N,Net-(U1-OSC2{slash}CLKO)*%
X230920000Y-115740000D03*
%TO.P,U1,15,T1OSO/T1CKI/RC0_15*%
%TO.N,unconnected-(U1-T1OSO{slash}T1CKI{slash}RC0-Pad15)*%
X233460000Y-115740000D03*
%TO.P,U1,16,T1OSI/CCP2/RC1_16*%
%TO.N,unconnected-(U1-T1OSI{slash}CCP2{slash}RC1-Pad16)*%
X236000000Y-115740000D03*
%TO.P,U1,17,CCP1/RC2_17*%
%TO.N,unconnected-(U1-CCP1{slash}RC2-Pad17)*%
X238540000Y-115740000D03*
%TO.P,U1,18,SCK/SCL/RC3_18*%
%TO.N,unconnected-(U1-SCK{slash}SCL{slash}RC3-Pad18)*%
X241080000Y-115740000D03*
%TO.P,U1,19,RD0/PSP0_19*%
%TO.N,Net-(J7-Pin_3)*%
X243620000Y-115740000D03*
%TO.P,U1,20,RD1/PSP1_20*%
%TO.N,unconnected-(U1-RD1{slash}PSP1-Pad20)*%
X246160000Y-115740000D03*
%TO.P,U1,21,RD2/PSP2_21*%
%TO.N,Net-(J7-Pin_2)*%
X246160000Y-100500000D03*
%TO.P,U1,22,RD3/PSP3_22*%
%TO.N,Net-(U1-RD3{slash}PSP3)*%
X243620000Y-100500000D03*
%TO.P,U1,23,SDI/SDA/RC4_23*%
%TO.N,unconnected-(U1-SDI{slash}SDA{slash}RC4-Pad23)*%
X241080000Y-100500000D03*
%TO.P,U1,24,SDO/RC5_24*%
%TO.N,unconnected-(U1-SDO{slash}RC5-Pad24)*%
X238540000Y-100500000D03*
%TO.P,U1,25,CK/TX/RC6_25*%
%TO.N,Net-(J10-Pin_6)*%
X236000000Y-100500000D03*
%TO.P,U1,26,DT/RX/RC7_26*%
%TO.N,Net-(J10-Pin_8)*%
X233460000Y-100500000D03*
%TO.P,U1,27,RD4/PSP4_27*%
%TO.N,unconnected-(U1-RD4{slash}PSP4-Pad27)*%
X230920000Y-100500000D03*
%TO.P,U1,28,RD5/PSP5_28*%
%TO.N,unconnected-(U1-RD5{slash}PSP5-Pad28)*%
X228380000Y-100500000D03*
%TO.P,U1,29,RD6/PSP6_29*%
%TO.N,unconnected-(U1-RD6{slash}PSP6-Pad29)*%
X225840000Y-100500000D03*
%TO.P,U1,30,RD7/PSP7_30*%
%TO.N,unconnected-(U1-RD7{slash}PSP7-Pad30)*%
X223300000Y-100500000D03*
%TO.P,U1,31,VSS_31*%
%TO.N,GND*%
X220760000Y-100500000D03*
%TO.P,U1,32,VDD_32*%
%TO.N,+5V*%
X218220000Y-100500000D03*
%TO.P,U1,33,INT/RB0_33*%
%TO.N,unconnected-(U1-INT{slash}RB0-Pad33)*%
X215680000Y-100500000D03*
%TO.P,U1,34,RB1_34*%
%TO.N,Net-(J2-Pin_2)*%
X213140000Y-100500000D03*
%TO.P,U1,35,RB2_35*%
%TO.N,unconnected-(U1-RB2-Pad35)*%
X210600000Y-100500000D03*
%TO.P,U1,36,PGM/RB3_36*%
%TO.N,unconnected-(U1-PGM{slash}RB3-Pad36)*%
X208060000Y-100500000D03*
%TO.P,U1,37,RB4_37*%
%TO.N,unconnected-(U1-RB4-Pad37)*%
X205520000Y-100500000D03*
%TO.P,U1,38,RB5_38*%
%TO.N,unconnected-(U1-RB5-Pad38)*%
X202980000Y-100500000D03*
%TO.P,U1,39,PGC/RB6_39*%
%TO.N,unconnected-(U1-PGC{slash}RB6-Pad39)*%
X200440000Y-100500000D03*
%TO.P,U1,40,PGD/RB7_40*%
%TO.N,unconnected-(U1-PGD{slash}RB7-Pad40)*%
X197900000Y-100500000D03*
%TD*%
%TO.P,R1,1*%
%TO.N,+5V*%
X205250000Y-120750000D03*
%TO.P,R1,2*%
%TO.N,Net-(U1-~{MCLR}{slash}Vpp)*%
X197630000Y-120750000D03*
%TD*%
D16*
%TO.P,J3,1,Pin_1_1*%
%TO.N,+5V*%
X236000000Y-25170000D03*
D15*
%TO.P,J3,2,Pin_2_2*%
%TO.N,Net-(J3-Pin_2)*%
X236000000Y-27710000D03*
%TO.P,J3,3,Pin_3_3*%
%TO.N,+BATT*%
X236000000Y-30250000D03*
%TO.P,J3,4,Pin_4_4*%
%TO.N,-BATT*%
X236000000Y-32790000D03*
%TO.P,J3,5,Pin_5_5*%
%TO.N,GND*%
X236000000Y-35330000D03*
%TD*%
D16*
%TO.P,J2,1,Pin_1_1*%
%TO.N,+5V*%
X259750000Y-49170000D03*
D15*
%TO.P,J2,2,Pin_2_2*%
%TO.N,Net-(J2-Pin_2)*%
X259750000Y-51710000D03*
%TO.P,J2,3,Pin_3_3*%
%TO.N,GND*%
X259750000Y-54250000D03*
%TD*%
D16*
%TO.P,J1,1,Pin_1_1*%
%TO.N,unconnected-(J1-Pin_1-Pad1)*%
X173000000Y-29390000D03*
D15*
%TO.P,J1,2,Pin_2_2*%
%TO.N,unconnected-(J1-Pin_2-Pad2)*%
X173000000Y-26850000D03*
%TO.P,J1,3,Pin_3_3*%
%TO.N,unconnected-(J1-Pin_3-Pad3)*%
X175540000Y-29390000D03*
%TO.P,J1,4,Pin_4_4*%
%TO.N,unconnected-(J1-Pin_4-Pad4)*%
X175540000Y-26850000D03*
%TO.P,J1,5,Pin_5_5*%
%TO.N,unconnected-(J1-Pin_5-Pad5)*%
X178080000Y-29390000D03*
%TO.P,J1,6,Pin_6_6*%
%TO.N,GND*%
X178080000Y-26850000D03*
%TO.P,J1,7,Pin_7_7*%
%TO.N,unconnected-(J1-Pin_7-Pad7)*%
X180620000Y-29390000D03*
%TO.P,J1,8,Pin_8_8*%
%TO.N,Net-(J1-Pin_8)*%
X180620000Y-26850000D03*
%TO.P,J1,9,Pin_9_9*%
%TO.N,unconnected-(J1-Pin_9-Pad9)*%
X183160000Y-29390000D03*
%TO.P,J1,10,Pin_10_10*%
%TO.N,Net-(J1-Pin_10)*%
X183160000Y-26850000D03*
%TO.P,J1,11,Pin_11_11*%
%TO.N,unconnected-(J1-Pin_11-Pad11)*%
X185700000Y-29390000D03*
%TO.P,J1,12,Pin_12_12*%
%TO.N,unconnected-(J1-Pin_12-Pad12)*%
X185700000Y-26850000D03*
%TO.P,J1,13,Pin_13_13*%
%TO.N,unconnected-(J1-Pin_13-Pad13)*%
X188240000Y-29390000D03*
%TO.P,J1,14,Pin_14_14*%
%TO.N,unconnected-(J1-Pin_14-Pad14)*%
X188240000Y-26850000D03*
%TO.P,J1,15,Pin_15_15*%
%TO.N,unconnected-(J1-Pin_15-Pad15)*%
X190780000Y-29390000D03*
%TO.P,J1,16,Pin_16_16*%
%TO.N,unconnected-(J1-Pin_16-Pad16)*%
X190780000Y-26850000D03*
%TO.P,J1,17,Pin_17_17*%
%TO.N,unconnected-(J1-Pin_17-Pad17)*%
X193320000Y-29390000D03*
%TO.P,J1,18,Pin_18_18*%
%TO.N,unconnected-(J1-Pin_18-Pad18)*%
X193320000Y-26850000D03*
%TO.P,J1,19,Pin_19_19*%
%TO.N,unconnected-(J1-Pin_19-Pad19)*%
X195860000Y-29390000D03*
%TO.P,J1,20,Pin_20_20*%
%TO.N,unconnected-(J1-Pin_20-Pad20)*%
X195860000Y-26850000D03*
%TO.P,J1,21,Pin_21_21*%
%TO.N,unconnected-(J1-Pin_21-Pad21)*%
X198400000Y-29390000D03*
%TO.P,J1,22,Pin_22_22*%
%TO.N,unconnected-(J1-Pin_22-Pad22)*%
X198400000Y-26850000D03*
%TO.P,J1,23,Pin_23_23*%
%TO.N,unconnected-(J1-Pin_23-Pad23)*%
X200940000Y-29390000D03*
%TO.P,J1,24,Pin_24_24*%
%TO.N,unconnected-(J1-Pin_24-Pad24)*%
X200940000Y-26850000D03*
%TO.P,J1,25,Pin_25_25*%
%TO.N,unconnected-(J1-Pin_25-Pad25)*%
X203480000Y-29390000D03*
%TO.P,J1,26,Pin_26_26*%
%TO.N,unconnected-(J1-Pin_26-Pad26)*%
X203480000Y-26850000D03*
%TO.P,J1,27,Pin_27_27*%
%TO.N,+3.3V*%
X206020000Y-29390000D03*
%TO.P,J1,28,Pin_28_28*%
%TO.N,unconnected-(J1-Pin_28-Pad28)*%
X206020000Y-26850000D03*
%TO.P,J1,29,Pin_29_29*%
%TO.N,unconnected-(J1-Pin_29-Pad29)*%
X208560000Y-29390000D03*
%TO.P,J1,30,Pin_30_30*%
%TO.N,unconnected-(J1-Pin_30-Pad30)*%
X208560000Y-26850000D03*
%TO.P,J1,31,Pin_31_31*%
%TO.N,unconnected-(J1-Pin_31-Pad31)*%
X211100000Y-29390000D03*
%TO.P,J1,32,Pin_32_32*%
%TO.N,unconnected-(J1-Pin_32-Pad32)*%
X211100000Y-26850000D03*
%TO.P,J1,33,Pin_33_33*%
%TO.N,unconnected-(J1-Pin_33-Pad33)*%
X213640000Y-29390000D03*
%TO.P,J1,34,Pin_34_34*%
%TO.N,unconnected-(J1-Pin_34-Pad34)*%
X213640000Y-26850000D03*
%TO.P,J1,35,Pin_35_35*%
%TO.N,unconnected-(J1-Pin_35-Pad35)*%
X216180000Y-29390000D03*
%TO.P,J1,36,Pin_36_36*%
%TO.N,unconnected-(J1-Pin_36-Pad36)*%
X216180000Y-26850000D03*
%TO.P,J1,37,Pin_37_37*%
%TO.N,unconnected-(J1-Pin_37-Pad37)*%
X218720000Y-29390000D03*
%TO.P,J1,38,Pin_38_38*%
%TO.N,unconnected-(J1-Pin_38-Pad38)*%
X218720000Y-26850000D03*
%TO.P,J1,39,Pin_39_39*%
%TO.N,unconnected-(J1-Pin_39-Pad39)*%
X221260000Y-29390000D03*
%TO.P,J1,40,Pin_40_40*%
%TO.N,unconnected-(J1-Pin_40-Pad40)*%
X221260000Y-26850000D03*
%TD*%
D12*
%TO.P,D2,1,K_1*%
%TO.N,+BATT*%
X262460000Y-26750000D03*
D13*
%TO.P,D2,2,A_2*%
%TO.N,-BATT*%
X265000000Y-26750000D03*
%TD*%
D14*
%TO.P,C2,1*%
%TO.N,Net-(U1-OSC1{slash}CLKI)*%
X213250000Y-125750000D03*
%TO.P,C2,2*%
%TO.N,GND*%
X208250000Y-125750000D03*
%TD*%
%TO.P,C1,1*%
%TO.N,GND*%
X222500000Y-126750000D03*
%TO.P,C1,2*%
%TO.N,Net-(U1-OSC2{slash}CLKO)*%
X227500000Y-126750000D03*
%TD*%
%TO.N,+5V*%
D19*
X232000000Y-50750000D02*
X230250000Y-52500000D01*
X233250000Y-50750000D02*
X232000000Y-50750000D01*
%TO.N,Net-(U1-OSC1{slash}CLKI)*%
X218370000Y-125750000D02*
X213250000Y-125750000D01*
X228380000Y-115740000D02*
X218370000Y-125750000D01*
%TO.N,+5V*%
X230500000Y-52750000D02*
X230250000Y-52500000D01*
%TO.N,Net-(J3-Pin_2)*%
X235922919Y-27787081D02*
X236000000Y-27710000D01*
X235922919Y-28700735D02*
X235922919Y-27787081D01*
%TO.N,/NO1*%
X220120000Y-78130000D02*
X218500000Y-78130000D01*
X220750000Y-77500000D02*
X220120000Y-78130000D01*
%TO.N,GND*%
X209350000Y-124650000D02*
X208250000Y-125750000D01*
X216930000Y-124650000D02*
X209350000Y-124650000D01*
X225840000Y-115740000D02*
X216930000Y-124650000D01*
X225840000Y-105580000D02*
X220760000Y-100500000D01*
X225840000Y-115740000D02*
X225840000Y-105580000D01*
%TO.N,+5V*%
X254800000Y-27950000D02*
X230250000Y-52500000D01*
X263660000Y-27950000D02*
X254800000Y-27950000D01*
X263660000Y-25550000D02*
X263660000Y-27950000D01*
X263280000Y-25170000D02*
X263660000Y-25550000D01*
X236000000Y-25170000D02*
X263280000Y-25170000D01*
%TO.N,Net-(U1-~{MCLR}{slash}Vpp)*%
X197900000Y-120480000D02*
X197630000Y-120750000D01*
X197900000Y-115740000D02*
X197900000Y-120480000D01*
%TO.N,Net-(U1-OSC1{slash}CLKI)*%
X229480000Y-114640000D02*
X228380000Y-115740000D01*
X231375635Y-114640000D02*
X229480000Y-114640000D01*
X246200000Y-123450000D02*
X239274365Y-123450000D01*
X232020000Y-115284365D02*
X231375635Y-114640000D01*
X247250000Y-124500000D02*
X246200000Y-123450000D01*
X239274365Y-123450000D02*
X232020000Y-116195635D01*
X232020000Y-116195635D02*
X232020000Y-115284365D01*
%TO.N,Net-(U1-OSC2{slash}CLKO)*%
X229750000Y-124500000D02*
X227500000Y-126750000D01*
X242370000Y-124500000D02*
X229750000Y-124500000D01*
X239680000Y-124500000D02*
X242370000Y-124500000D01*
X230920000Y-115740000D02*
X239680000Y-124500000D01*
%TO.N,+BATT*%
X236000000Y-30250000D02*
X239500000Y-26750000D01*
X239500000Y-26750000D02*
X262460000Y-26750000D01*
X253700000Y-26750000D02*
X262460000Y-26750000D01*
X209500000Y-70950000D02*
X253700000Y-26750000D01*
X209500000Y-100955635D02*
X209500000Y-70950000D01*
X210544365Y-102000000D02*
X209500000Y-100955635D01*
X218275635Y-102000000D02*
X210544365Y-102000000D01*
X219320000Y-100955635D02*
X218275635Y-102000000D01*
X219320000Y-100044365D02*
X219320000Y-100955635D01*
X217350000Y-98074365D02*
X219320000Y-100044365D01*
X217350000Y-81820000D02*
X217350000Y-98074365D01*
X218500000Y-80670000D02*
X217350000Y-81820000D01*
%TO.N,Net-(J1-Pin_8)*%
X179230000Y-28240000D02*
X180620000Y-26850000D01*
X179230000Y-56520000D02*
X179230000Y-28240000D01*
X156500000Y-79250000D02*
X179230000Y-56520000D01*
%TO.N,Net-(J1-Pin_10)*%
X182010000Y-28000000D02*
X183160000Y-26850000D01*
X182010000Y-58820000D02*
X182010000Y-28000000D01*
X156500000Y-84330000D02*
X182010000Y-58820000D01*
%TO.N,Net-(J7-Pin_3)*%
X260900000Y-51233654D02*
X260226346Y-50560000D01*
X237270000Y-50560000D02*
X230250000Y-57580000D01*
X260900000Y-98460000D02*
X260900000Y-51233654D01*
X260226346Y-50560000D02*
X237270000Y-50560000D01*
X243620000Y-115740000D02*
X260900000Y-98460000D01*
%TO.N,+5V*%
X212040000Y-100955635D02*
X212040000Y-70710000D01*
X212684365Y-101600000D02*
X212040000Y-100955635D01*
X217120000Y-101600000D02*
X212684365Y-101600000D01*
X218220000Y-100500000D02*
X217120000Y-101600000D01*
X212040000Y-70710000D02*
X230250000Y-52500000D01*
%TO.N,Net-(J2-Pin_2)*%
X237260000Y-74200000D02*
X259750000Y-51710000D01*
X217800000Y-74200000D02*
X237260000Y-74200000D01*
X213140000Y-78860000D02*
X217800000Y-74200000D01*
X213140000Y-100500000D02*
X213140000Y-78860000D01*
%TO.N,Net-(J3-Pin_2)*%
X204080000Y-60543654D02*
X235922919Y-28700735D01*
X204080000Y-112100000D02*
X204080000Y-60543654D01*
X200440000Y-115740000D02*
X204080000Y-112100000D01*
%TO.N,/NO1*%
X222250000Y-76000000D02*
X220750000Y-77500000D01*
X255500000Y-77500000D02*
X254000000Y-76000000D01*
X254000000Y-76000000D02*
X222250000Y-76000000D01*
%TO.N,+5V*%
X259750000Y-49170000D02*
X234830000Y-49170000D01*
X234830000Y-49170000D02*
X233250000Y-50750000D01*
%TD*%
M02*
