%TF.GenerationSoftware,KiCad,Pcbnew,10.0.2*%
%TF.CreationDate,2026-05-24T11:42:40+03:00*%
%TF.ProjectId,Bank_Security_PCB,42616e6b-5f53-4656-9375-726974795f50,rev?*%
%TF.SameCoordinates,Original*%
%TF.FileFunction,Legend,Top*%
%TF.FilePolarity,Positive*%
%FSLAX46Y46*%
G04 Gerber Fmt 4.6, Leading zero omitted, Abs format (unit mm)*
G04 Created by KiCad (PCBNEW 10.0.2) date 2026-05-24 11:42:40*
%MOMM*%
%LPD*%
G01*
G04 APERTURE LIST*
%ADD10C,0.150000*%
%ADD11C,0.120000*%
G04 APERTURE END LIST*
D10*
X252926666Y-70934819D02*
X252926666Y-71649104D01*
X252926666Y-71649104D02*
X252879047Y-71791961D01*
X252879047Y-71791961D02*
X252783809Y-71887200D01*
X252783809Y-71887200D02*
X252640952Y-71934819D01*
X252640952Y-71934819D02*
X252545714Y-71934819D01*
X253879047Y-70934819D02*
X253402857Y-70934819D01*
X253402857Y-70934819D02*
X253355238Y-71411009D01*
X253355238Y-71411009D02*
X253402857Y-71363390D01*
X253402857Y-71363390D02*
X253498095Y-71315771D01*
X253498095Y-71315771D02*
X253736190Y-71315771D01*
X253736190Y-71315771D02*
X253831428Y-71363390D01*
X253831428Y-71363390D02*
X253879047Y-71411009D01*
X253879047Y-71411009D02*
X253926666Y-71506247D01*
X253926666Y-71506247D02*
X253926666Y-71744342D01*
X253926666Y-71744342D02*
X253879047Y-71839580D01*
X253879047Y-71839580D02*
X253831428Y-71887200D01*
X253831428Y-71887200D02*
X253736190Y-71934819D01*
X253736190Y-71934819D02*
X253498095Y-71934819D01*
X253498095Y-71934819D02*
X253402857Y-71887200D01*
X253402857Y-71887200D02*
X253355238Y-71839580D01*
X239491905Y-81744819D02*
X239491905Y-80744819D01*
X239491905Y-80744819D02*
X239730000Y-80744819D01*
X239730000Y-80744819D02*
X239872857Y-80792438D01*
X239872857Y-80792438D02*
X239968095Y-80887676D01*
X239968095Y-80887676D02*
X240015714Y-80982914D01*
X240015714Y-80982914D02*
X240063333Y-81173390D01*
X240063333Y-81173390D02*
X240063333Y-81316247D01*
X240063333Y-81316247D02*
X240015714Y-81506723D01*
X240015714Y-81506723D02*
X239968095Y-81601961D01*
X239968095Y-81601961D02*
X239872857Y-81697200D01*
X239872857Y-81697200D02*
X239730000Y-81744819D01*
X239730000Y-81744819D02*
X239491905Y-81744819D01*
X241015714Y-81744819D02*
X240444286Y-81744819D01*
X240730000Y-81744819D02*
X240730000Y-80744819D01*
X240730000Y-80744819D02*
X240634762Y-80887676D01*
X240634762Y-80887676D02*
X240539524Y-80982914D01*
X240539524Y-80982914D02*
X240444286Y-81030533D01*
X241023333Y-90334819D02*
X240690000Y-89858628D01*
X240451905Y-90334819D02*
X240451905Y-89334819D01*
X240451905Y-89334819D02*
X240832857Y-89334819D01*
X240832857Y-89334819D02*
X240928095Y-89382438D01*
X240928095Y-89382438D02*
X240975714Y-89430057D01*
X240975714Y-89430057D02*
X241023333Y-89525295D01*
X241023333Y-89525295D02*
X241023333Y-89668152D01*
X241023333Y-89668152D02*
X240975714Y-89763390D01*
X240975714Y-89763390D02*
X240928095Y-89811009D01*
X240928095Y-89811009D02*
X240832857Y-89858628D01*
X240832857Y-89858628D02*
X240451905Y-89858628D01*
X241404286Y-89430057D02*
X241451905Y-89382438D01*
X241451905Y-89382438D02*
X241547143Y-89334819D01*
X241547143Y-89334819D02*
X241785238Y-89334819D01*
X241785238Y-89334819D02*
X241880476Y-89382438D01*
X241880476Y-89382438D02*
X241928095Y-89430057D01*
X241928095Y-89430057D02*
X241975714Y-89525295D01*
X241975714Y-89525295D02*
X241975714Y-89620533D01*
X241975714Y-89620533D02*
X241928095Y-89763390D01*
X241928095Y-89763390D02*
X241356667Y-90334819D01*
X241356667Y-90334819D02*
X241975714Y-90334819D01*
X229916666Y-49574819D02*
X229916666Y-50289104D01*
X229916666Y-50289104D02*
X229869047Y-50431961D01*
X229869047Y-50431961D02*
X229773809Y-50527200D01*
X229773809Y-50527200D02*
X229630952Y-50574819D01*
X229630952Y-50574819D02*
X229535714Y-50574819D01*
X230297619Y-49574819D02*
X230964285Y-49574819D01*
X230964285Y-49574819D02*
X230535714Y-50574819D01*
X155690476Y-61084819D02*
X155690476Y-61799104D01*
X155690476Y-61799104D02*
X155642857Y-61941961D01*
X155642857Y-61941961D02*
X155547619Y-62037200D01*
X155547619Y-62037200D02*
X155404762Y-62084819D01*
X155404762Y-62084819D02*
X155309524Y-62084819D01*
X156690476Y-62084819D02*
X156119048Y-62084819D01*
X156404762Y-62084819D02*
X156404762Y-61084819D01*
X156404762Y-61084819D02*
X156309524Y-61227676D01*
X156309524Y-61227676D02*
X156214286Y-61322914D01*
X156214286Y-61322914D02*
X156119048Y-61370533D01*
X157309524Y-61084819D02*
X157404762Y-61084819D01*
X157404762Y-61084819D02*
X157500000Y-61132438D01*
X157500000Y-61132438D02*
X157547619Y-61180057D01*
X157547619Y-61180057D02*
X157595238Y-61275295D01*
X157595238Y-61275295D02*
X157642857Y-61465771D01*
X157642857Y-61465771D02*
X157642857Y-61703866D01*
X157642857Y-61703866D02*
X157595238Y-61894342D01*
X157595238Y-61894342D02*
X157547619Y-61989580D01*
X157547619Y-61989580D02*
X157500000Y-62037200D01*
X157500000Y-62037200D02*
X157404762Y-62084819D01*
X157404762Y-62084819D02*
X157309524Y-62084819D01*
X157309524Y-62084819D02*
X157214286Y-62037200D01*
X157214286Y-62037200D02*
X157166667Y-61989580D01*
X157166667Y-61989580D02*
X157119048Y-61894342D01*
X157119048Y-61894342D02*
X157071429Y-61703866D01*
X157071429Y-61703866D02*
X157071429Y-61465771D01*
X157071429Y-61465771D02*
X157119048Y-61275295D01*
X157119048Y-61275295D02*
X157166667Y-61180057D01*
X157166667Y-61180057D02*
X157214286Y-61132438D01*
X157214286Y-61132438D02*
X157309524Y-61084819D01*
X218166666Y-70124819D02*
X218166666Y-70839104D01*
X218166666Y-70839104D02*
X218119047Y-70981961D01*
X218119047Y-70981961D02*
X218023809Y-71077200D01*
X218023809Y-71077200D02*
X217880952Y-71124819D01*
X217880952Y-71124819D02*
X217785714Y-71124819D01*
X219071428Y-70458152D02*
X219071428Y-71124819D01*
X218833333Y-70077200D02*
X218595238Y-70791485D01*
X218595238Y-70791485D02*
X219214285Y-70791485D01*
X244333809Y-120958628D02*
X244333809Y-121434819D01*
X244000476Y-120434819D02*
X244333809Y-120958628D01*
X244333809Y-120958628D02*
X244667142Y-120434819D01*
X245524285Y-121434819D02*
X244952857Y-121434819D01*
X245238571Y-121434819D02*
X245238571Y-120434819D01*
X245238571Y-120434819D02*
X245143333Y-120577676D01*
X245143333Y-120577676D02*
X245048095Y-120672914D01*
X245048095Y-120672914D02*
X244952857Y-120720533D01*
X195024819Y-108881904D02*
X195834342Y-108881904D01*
X195834342Y-108881904D02*
X195929580Y-108834285D01*
X195929580Y-108834285D02*
X195977200Y-108786666D01*
X195977200Y-108786666D02*
X196024819Y-108691428D01*
X196024819Y-108691428D02*
X196024819Y-108500952D01*
X196024819Y-108500952D02*
X195977200Y-108405714D01*
X195977200Y-108405714D02*
X195929580Y-108358095D01*
X195929580Y-108358095D02*
X195834342Y-108310476D01*
X195834342Y-108310476D02*
X195024819Y-108310476D01*
X196024819Y-107310476D02*
X196024819Y-107881904D01*
X196024819Y-107596190D02*
X195024819Y-107596190D01*
X195024819Y-107596190D02*
X195167676Y-107691428D01*
X195167676Y-107691428D02*
X195262914Y-107786666D01*
X195262914Y-107786666D02*
X195310533Y-107881904D01*
X201273333Y-123574819D02*
X200940000Y-123098628D01*
X200701905Y-123574819D02*
X200701905Y-122574819D01*
X200701905Y-122574819D02*
X201082857Y-122574819D01*
X201082857Y-122574819D02*
X201178095Y-122622438D01*
X201178095Y-122622438D02*
X201225714Y-122670057D01*
X201225714Y-122670057D02*
X201273333Y-122765295D01*
X201273333Y-122765295D02*
X201273333Y-122908152D01*
X201273333Y-122908152D02*
X201225714Y-123003390D01*
X201225714Y-123003390D02*
X201178095Y-123051009D01*
X201178095Y-123051009D02*
X201082857Y-123098628D01*
X201082857Y-123098628D02*
X200701905Y-123098628D01*
X202225714Y-123574819D02*
X201654286Y-123574819D01*
X201940000Y-123574819D02*
X201940000Y-122574819D01*
X201940000Y-122574819D02*
X201844762Y-122717676D01*
X201844762Y-122717676D02*
X201749524Y-122812914D01*
X201749524Y-122812914D02*
X201654286Y-122860533D01*
X235666666Y-22244819D02*
X235666666Y-22959104D01*
X235666666Y-22959104D02*
X235619047Y-23101961D01*
X235619047Y-23101961D02*
X235523809Y-23197200D01*
X235523809Y-23197200D02*
X235380952Y-23244819D01*
X235380952Y-23244819D02*
X235285714Y-23244819D01*
X236047619Y-22244819D02*
X236666666Y-22244819D01*
X236666666Y-22244819D02*
X236333333Y-22625771D01*
X236333333Y-22625771D02*
X236476190Y-22625771D01*
X236476190Y-22625771D02*
X236571428Y-22673390D01*
X236571428Y-22673390D02*
X236619047Y-22721009D01*
X236619047Y-22721009D02*
X236666666Y-22816247D01*
X236666666Y-22816247D02*
X236666666Y-23054342D01*
X236666666Y-23054342D02*
X236619047Y-23149580D01*
X236619047Y-23149580D02*
X236571428Y-23197200D01*
X236571428Y-23197200D02*
X236476190Y-23244819D01*
X236476190Y-23244819D02*
X236190476Y-23244819D01*
X236190476Y-23244819D02*
X236095238Y-23197200D01*
X236095238Y-23197200D02*
X236047619Y-23149580D01*
X259416666Y-46244819D02*
X259416666Y-46959104D01*
X259416666Y-46959104D02*
X259369047Y-47101961D01*
X259369047Y-47101961D02*
X259273809Y-47197200D01*
X259273809Y-47197200D02*
X259130952Y-47244819D01*
X259130952Y-47244819D02*
X259035714Y-47244819D01*
X259845238Y-46340057D02*
X259892857Y-46292438D01*
X259892857Y-46292438D02*
X259988095Y-46244819D01*
X259988095Y-46244819D02*
X260226190Y-46244819D01*
X260226190Y-46244819D02*
X260321428Y-46292438D01*
X260321428Y-46292438D02*
X260369047Y-46340057D01*
X260369047Y-46340057D02*
X260416666Y-46435295D01*
X260416666Y-46435295D02*
X260416666Y-46530533D01*
X260416666Y-46530533D02*
X260369047Y-46673390D01*
X260369047Y-46673390D02*
X259797619Y-47244819D01*
X259797619Y-47244819D02*
X260416666Y-47244819D01*
X170074819Y-28453333D02*
X170789104Y-28453333D01*
X170789104Y-28453333D02*
X170931961Y-28500952D01*
X170931961Y-28500952D02*
X171027200Y-28596190D01*
X171027200Y-28596190D02*
X171074819Y-28739047D01*
X171074819Y-28739047D02*
X171074819Y-28834285D01*
X171074819Y-27453333D02*
X171074819Y-28024761D01*
X171074819Y-27739047D02*
X170074819Y-27739047D01*
X170074819Y-27739047D02*
X170217676Y-27834285D01*
X170217676Y-27834285D02*
X170312914Y-27929523D01*
X170312914Y-27929523D02*
X170360533Y-28024761D01*
X262991905Y-23244819D02*
X262991905Y-22244819D01*
X262991905Y-22244819D02*
X263230000Y-22244819D01*
X263230000Y-22244819D02*
X263372857Y-22292438D01*
X263372857Y-22292438D02*
X263468095Y-22387676D01*
X263468095Y-22387676D02*
X263515714Y-22482914D01*
X263515714Y-22482914D02*
X263563333Y-22673390D01*
X263563333Y-22673390D02*
X263563333Y-22816247D01*
X263563333Y-22816247D02*
X263515714Y-23006723D01*
X263515714Y-23006723D02*
X263468095Y-23101961D01*
X263468095Y-23101961D02*
X263372857Y-23197200D01*
X263372857Y-23197200D02*
X263230000Y-23244819D01*
X263230000Y-23244819D02*
X262991905Y-23244819D01*
X263944286Y-22340057D02*
X263991905Y-22292438D01*
X263991905Y-22292438D02*
X264087143Y-22244819D01*
X264087143Y-22244819D02*
X264325238Y-22244819D01*
X264325238Y-22244819D02*
X264420476Y-22292438D01*
X264420476Y-22292438D02*
X264468095Y-22340057D01*
X264468095Y-22340057D02*
X264515714Y-22435295D01*
X264515714Y-22435295D02*
X264515714Y-22530533D01*
X264515714Y-22530533D02*
X264468095Y-22673390D01*
X264468095Y-22673390D02*
X263896667Y-23244819D01*
X263896667Y-23244819D02*
X264515714Y-23244819D01*
X210583333Y-128609580D02*
X210535714Y-128657200D01*
X210535714Y-128657200D02*
X210392857Y-128704819D01*
X210392857Y-128704819D02*
X210297619Y-128704819D01*
X210297619Y-128704819D02*
X210154762Y-128657200D01*
X210154762Y-128657200D02*
X210059524Y-128561961D01*
X210059524Y-128561961D02*
X210011905Y-128466723D01*
X210011905Y-128466723D02*
X209964286Y-128276247D01*
X209964286Y-128276247D02*
X209964286Y-128133390D01*
X209964286Y-128133390D02*
X210011905Y-127942914D01*
X210011905Y-127942914D02*
X210059524Y-127847676D01*
X210059524Y-127847676D02*
X210154762Y-127752438D01*
X210154762Y-127752438D02*
X210297619Y-127704819D01*
X210297619Y-127704819D02*
X210392857Y-127704819D01*
X210392857Y-127704819D02*
X210535714Y-127752438D01*
X210535714Y-127752438D02*
X210583333Y-127800057D01*
X210964286Y-127800057D02*
X211011905Y-127752438D01*
X211011905Y-127752438D02*
X211107143Y-127704819D01*
X211107143Y-127704819D02*
X211345238Y-127704819D01*
X211345238Y-127704819D02*
X211440476Y-127752438D01*
X211440476Y-127752438D02*
X211488095Y-127800057D01*
X211488095Y-127800057D02*
X211535714Y-127895295D01*
X211535714Y-127895295D02*
X211535714Y-127990533D01*
X211535714Y-127990533D02*
X211488095Y-128133390D01*
X211488095Y-128133390D02*
X210916667Y-128704819D01*
X210916667Y-128704819D02*
X211535714Y-128704819D01*
X224833333Y-124609580D02*
X224785714Y-124657200D01*
X224785714Y-124657200D02*
X224642857Y-124704819D01*
X224642857Y-124704819D02*
X224547619Y-124704819D01*
X224547619Y-124704819D02*
X224404762Y-124657200D01*
X224404762Y-124657200D02*
X224309524Y-124561961D01*
X224309524Y-124561961D02*
X224261905Y-124466723D01*
X224261905Y-124466723D02*
X224214286Y-124276247D01*
X224214286Y-124276247D02*
X224214286Y-124133390D01*
X224214286Y-124133390D02*
X224261905Y-123942914D01*
X224261905Y-123942914D02*
X224309524Y-123847676D01*
X224309524Y-123847676D02*
X224404762Y-123752438D01*
X224404762Y-123752438D02*
X224547619Y-123704819D01*
X224547619Y-123704819D02*
X224642857Y-123704819D01*
X224642857Y-123704819D02*
X224785714Y-123752438D01*
X224785714Y-123752438D02*
X224833333Y-123800057D01*
X225785714Y-124704819D02*
X225214286Y-124704819D01*
X225500000Y-124704819D02*
X225500000Y-123704819D01*
X225500000Y-123704819D02*
X225404762Y-123847676D01*
X225404762Y-123847676D02*
X225309524Y-123942914D01*
X225309524Y-123942914D02*
X225214286Y-123990533D01*
D11*
%TO.C,J5*%
X250420000Y-82970000D02*
X250860000Y-83580000D01*
X249980000Y-83580000D01*
X250420000Y-82970000D01*
G36*
X250860000Y-83580000D02*
G01*
X249980000Y-83580000D01*
X250420000Y-82970000D01*
X250860000Y-83580000D01*
G37*
X258760000Y-82970000D02*
X250720000Y-82970000D01*
X258760000Y-72480000D02*
X258760000Y-82970000D01*
X250120000Y-82970000D02*
X247760000Y-82970000D01*
X247760000Y-82970000D02*
X247760000Y-72480000D01*
X247760000Y-81850000D02*
X258760000Y-81850000D01*
X247760000Y-74100000D02*
X258760000Y-74100000D01*
X247760000Y-72480000D02*
X258760000Y-72480000D01*
%TO.C,D1*%
X237670000Y-83705000D02*
X237670000Y-86795000D01*
X237670000Y-83705170D02*
G75*
G02*
X243220000Y-85250000I2560000J-1544830D01*
G01*
X243220000Y-85250000D02*
G75*
G02*
X237670000Y-86794830I-2990000J0D01*
G01*
X242730000Y-85250000D02*
G75*
G02*
X237730000Y-85250000I-2500000J0D01*
G01*
X237730000Y-85250000D02*
G75*
G02*
X242730000Y-85250000I2500000J0D01*
G01*
%TO.C,R2*%
X244460000Y-93620000D02*
X244460000Y-93290000D01*
X244460000Y-90880000D02*
X244460000Y-91210000D01*
X237920000Y-93620000D02*
X244460000Y-93620000D01*
X237920000Y-93290000D02*
X237920000Y-93620000D01*
X237920000Y-91210000D02*
X237920000Y-90880000D01*
X237920000Y-90880000D02*
X244460000Y-90880000D01*
%TO.C,J7*%
X231630000Y-53770000D02*
X231630000Y-61500000D01*
X228870000Y-61500000D02*
X231630000Y-61500000D01*
X228870000Y-53770000D02*
X231630000Y-53770000D01*
X228870000Y-53770000D02*
X228870000Y-61500000D01*
X228870000Y-52500000D02*
X228870000Y-51120000D01*
X228870000Y-51120000D02*
X230250000Y-51120000D01*
%TO.C,J10*%
X155120000Y-62630000D02*
X156500000Y-62630000D01*
X155120000Y-64010000D02*
X155120000Y-62630000D01*
X155120000Y-65280000D02*
X155120000Y-93330000D01*
X155120000Y-65280000D02*
X157880000Y-65280000D01*
X155120000Y-93330000D02*
X157880000Y-93330000D01*
X157880000Y-65280000D02*
X157880000Y-93330000D01*
%TO.C,J4*%
X219880000Y-74320000D02*
X219880000Y-87130000D01*
X217120000Y-87130000D02*
X219880000Y-87130000D01*
X217120000Y-74320000D02*
X219880000Y-74320000D01*
X217120000Y-74320000D02*
X217120000Y-87130000D01*
X217120000Y-73050000D02*
X217120000Y-71670000D01*
X217120000Y-71670000D02*
X218500000Y-71670000D01*
%TO.C,Y1*%
X241685000Y-122065000D02*
X247935000Y-122065000D01*
X247935000Y-126935000D02*
X241685000Y-126935000D01*
X241685000Y-126935000D02*
G75*
G02*
X241685000Y-122065000I0J2435000D01*
G01*
X247935000Y-122065000D02*
G75*
G02*
X247935000Y-126935000I0J-2435000D01*
G01*
%TO.C,U1*%
X196570000Y-114580000D02*
X247490000Y-114580000D01*
X247490000Y-114580000D02*
X247490000Y-101660000D01*
X196570000Y-109120000D02*
X196570000Y-114580000D01*
X196570000Y-101660000D02*
X196570000Y-107120000D01*
X247490000Y-101660000D02*
X196570000Y-101660000D01*
X196570000Y-107120000D02*
G75*
G02*
X196570000Y-109120000I0J-1000000D01*
G01*
%TO.C,R1*%
X204710000Y-122120000D02*
X198170000Y-122120000D01*
X204710000Y-121790000D02*
X204710000Y-122120000D01*
X204710000Y-119710000D02*
X204710000Y-119380000D01*
X204710000Y-119380000D02*
X198170000Y-119380000D01*
X198170000Y-122120000D02*
X198170000Y-121790000D01*
X198170000Y-119380000D02*
X198170000Y-119710000D01*
%TO.C,J3*%
X234620000Y-23790000D02*
X236000000Y-23790000D01*
X234620000Y-25170000D02*
X234620000Y-23790000D01*
X234620000Y-26440000D02*
X234620000Y-36710000D01*
X234620000Y-26440000D02*
X237380000Y-26440000D01*
X234620000Y-36710000D02*
X237380000Y-36710000D01*
X237380000Y-26440000D02*
X237380000Y-36710000D01*
%TO.C,J2*%
X258370000Y-47790000D02*
X259750000Y-47790000D01*
X258370000Y-49170000D02*
X258370000Y-47790000D01*
X258370000Y-50440000D02*
X258370000Y-55630000D01*
X258370000Y-50440000D02*
X261130000Y-50440000D01*
X258370000Y-55630000D02*
X261130000Y-55630000D01*
X261130000Y-50440000D02*
X261130000Y-55630000D01*
%TO.C,J1*%
X171620000Y-30770000D02*
X171620000Y-29390000D01*
X173000000Y-30770000D02*
X171620000Y-30770000D01*
X174270000Y-30770000D02*
X222640000Y-30770000D01*
X174270000Y-30770000D02*
X174270000Y-28120000D01*
X222640000Y-30770000D02*
X222640000Y-25470000D01*
X171620000Y-28120000D02*
X171620000Y-25470000D01*
X174270000Y-28120000D02*
X171620000Y-28120000D01*
X171620000Y-25470000D02*
X222640000Y-25470000D01*
%TO.C,D2*%
X261170000Y-25205000D02*
X261170000Y-28295000D01*
X261170000Y-25205170D02*
G75*
G02*
X266720000Y-26750000I2560000J-1544830D01*
G01*
X266720000Y-26750000D02*
G75*
G02*
X261170000Y-28294830I-2990000J0D01*
G01*
X266230000Y-26750000D02*
G75*
G02*
X261230000Y-26750000I-2500000J0D01*
G01*
X261230000Y-26750000D02*
G75*
G02*
X266230000Y-26750000I2500000J0D01*
G01*
%TO.C,C2*%
X213370000Y-127120000D02*
X208130000Y-127120000D01*
X213370000Y-126783000D02*
X213370000Y-127120000D01*
X213370000Y-124380000D02*
X213370000Y-124717000D01*
X208130000Y-127120000D02*
X208130000Y-126783000D01*
X208130000Y-124717000D02*
X208130000Y-124380000D01*
X208130000Y-124380000D02*
X213370000Y-124380000D01*
%TO.C,C1*%
X222380000Y-125380000D02*
X227620000Y-125380000D01*
X222380000Y-125717000D02*
X222380000Y-125380000D01*
X222380000Y-128120000D02*
X222380000Y-127783000D01*
X227620000Y-125380000D02*
X227620000Y-125717000D01*
X227620000Y-127783000D02*
X227620000Y-128120000D01*
X227620000Y-128120000D02*
X222380000Y-128120000D01*
%TD*%
M02*
