%TF.GenerationSoftware,KiCad,Pcbnew,10.0.2*%
%TF.CreationDate,2026-05-24T11:42:40+03:00*%
%TF.ProjectId,Bank_Security_PCB,42616e6b-5f53-4656-9375-726974795f50,rev?*%
%TF.SameCoordinates,Original*%
%TF.FileFunction,Soldermask,Top*%
%TF.FilePolarity,Negative*%
%FSLAX46Y46*%
G04 Gerber Fmt 4.6, Leading zero omitted, Abs format (unit mm)*
G04 Created by KiCad (PCBNEW 10.0.2) date 2026-05-24 11:42:40*
%MOMM*%
%LPD*%
G01*
G04 APERTURE LIST*
G04 Aperture macros list*
%AMRoundRect*
0 Rectangle with rounded corners*
0 $1 Rounding radius*
0 $2 $3 $4 $5 $6 $7 $8 $9 X,Y pos of 4 corners*
0 Add a 4 corners polygon primitive as box body*
4,1,4,$2,$3,$4,$5,$6,$7,$8,$9,$2,$3,0*
0 Add four circle primitives for the rounded corners*
1,1,$1+$1,$2,$3*
1,1,$1+$1,$4,$5*
1,1,$1+$1,$6,$7*
1,1,$1+$1,$8,$9*
0 Add four rect primitives between the rounded corners*
20,1,$1+$1,$2,$3,$4,$5,0*
20,1,$1+$1,$4,$5,$6,$7,0*
20,1,$1+$1,$6,$7,$8,$9,0*
20,1,$1+$1,$8,$9,$2,$3,0*%
G04 Aperture macros list end*
%ADD10C,2.400000*%
%ADD11RoundRect,0.250001X-0.949999X-0.949999X0.949999X-0.949999X0.949999X0.949999X-0.949999X0.949999X0*%
%ADD12R,1.800000X1.800000*%
%ADD13C,1.800000*%
%ADD14C,1.600000*%
%ADD15C,1.700000*%
%ADD16R,1.700000X1.700000*%
%ADD17C,1.500000*%
%ADD18RoundRect,0.250000X0.550000X-0.550000X0.550000X0.550000X-0.550000X0.550000X-0.550000X-0.550000X0*%
G04 APERTURE END LIST*
D10*
%TO.C,J5*%
X255500000Y-77500000D03*
D11*
X250420000Y-77500000D03*
%TD*%
D12*
%TO.C,D1*%
X238960000Y-85250000D03*
D13*
X241500000Y-85250000D03*
%TD*%
D14*
%TO.C,R2*%
X245000000Y-92250000D03*
X237380000Y-92250000D03*
%TD*%
D15*
%TO.C,J7*%
X230250000Y-60120000D03*
X230250000Y-57580000D03*
X230250000Y-55040000D03*
D16*
X230250000Y-52500000D03*
%TD*%
%TO.C,J10*%
X156500000Y-64010000D03*
D15*
X156500000Y-66550000D03*
X156500000Y-69090000D03*
X156500000Y-71630000D03*
X156500000Y-74170000D03*
X156500000Y-76710000D03*
X156500000Y-79250000D03*
X156500000Y-81790000D03*
X156500000Y-84330000D03*
X156500000Y-86870000D03*
X156500000Y-89410000D03*
X156500000Y-91950000D03*
%TD*%
%TO.C,J4*%
X218500000Y-85750000D03*
X218500000Y-83210000D03*
X218500000Y-80670000D03*
X218500000Y-78130000D03*
X218500000Y-75590000D03*
D16*
X218500000Y-73050000D03*
%TD*%
D17*
%TO.C,Y1*%
X242370000Y-124500000D03*
X247250000Y-124500000D03*
%TD*%
D18*
%TO.C,U1*%
X197900000Y-115740000D03*
D14*
X200440000Y-115740000D03*
X202980000Y-115740000D03*
X205520000Y-115740000D03*
X208060000Y-115740000D03*
X210600000Y-115740000D03*
X213140000Y-115740000D03*
X215680000Y-115740000D03*
X218220000Y-115740000D03*
X220760000Y-115740000D03*
X223300000Y-115740000D03*
X225840000Y-115740000D03*
X228380000Y-115740000D03*
X230920000Y-115740000D03*
X233460000Y-115740000D03*
X236000000Y-115740000D03*
X238540000Y-115740000D03*
X241080000Y-115740000D03*
X243620000Y-115740000D03*
X246160000Y-115740000D03*
X246160000Y-100500000D03*
X243620000Y-100500000D03*
X241080000Y-100500000D03*
X238540000Y-100500000D03*
X236000000Y-100500000D03*
X233460000Y-100500000D03*
X230920000Y-100500000D03*
X228380000Y-100500000D03*
X225840000Y-100500000D03*
X223300000Y-100500000D03*
X220760000Y-100500000D03*
X218220000Y-100500000D03*
X215680000Y-100500000D03*
X213140000Y-100500000D03*
X210600000Y-100500000D03*
X208060000Y-100500000D03*
X205520000Y-100500000D03*
X202980000Y-100500000D03*
X200440000Y-100500000D03*
X197900000Y-100500000D03*
%TD*%
%TO.C,R1*%
X205250000Y-120750000D03*
X197630000Y-120750000D03*
%TD*%
D16*
%TO.C,J3*%
X236000000Y-25170000D03*
D15*
X236000000Y-27710000D03*
X236000000Y-30250000D03*
X236000000Y-32790000D03*
X236000000Y-35330000D03*
%TD*%
D16*
%TO.C,J2*%
X259750000Y-49170000D03*
D15*
X259750000Y-51710000D03*
X259750000Y-54250000D03*
%TD*%
D16*
%TO.C,J1*%
X173000000Y-29390000D03*
D15*
X173000000Y-26850000D03*
X175540000Y-29390000D03*
X175540000Y-26850000D03*
X178080000Y-29390000D03*
X178080000Y-26850000D03*
X180620000Y-29390000D03*
X180620000Y-26850000D03*
X183160000Y-29390000D03*
X183160000Y-26850000D03*
X185700000Y-29390000D03*
X185700000Y-26850000D03*
X188240000Y-29390000D03*
X188240000Y-26850000D03*
X190780000Y-29390000D03*
X190780000Y-26850000D03*
X193320000Y-29390000D03*
X193320000Y-26850000D03*
X195860000Y-29390000D03*
X195860000Y-26850000D03*
X198400000Y-29390000D03*
X198400000Y-26850000D03*
X200940000Y-29390000D03*
X200940000Y-26850000D03*
X203480000Y-29390000D03*
X203480000Y-26850000D03*
X206020000Y-29390000D03*
X206020000Y-26850000D03*
X208560000Y-29390000D03*
X208560000Y-26850000D03*
X211100000Y-29390000D03*
X211100000Y-26850000D03*
X213640000Y-29390000D03*
X213640000Y-26850000D03*
X216180000Y-29390000D03*
X216180000Y-26850000D03*
X218720000Y-29390000D03*
X218720000Y-26850000D03*
X221260000Y-29390000D03*
X221260000Y-26850000D03*
%TD*%
D12*
%TO.C,D2*%
X262460000Y-26750000D03*
D13*
X265000000Y-26750000D03*
%TD*%
D14*
%TO.C,C2*%
X213250000Y-125750000D03*
X208250000Y-125750000D03*
%TD*%
%TO.C,C1*%
X222500000Y-126750000D03*
X227500000Y-126750000D03*
%TD*%
M02*
