M48
; DRILL file KiCad 10.0.2 date 2026-05-24T11:43:15
; FORMAT={-:-/ absolute / metric / decimal}
; #@! TF.CreationDate,2026-05-24T11:43:15+03:00
; #@! TF.GenerationSoftware,Kicad,Pcbnew,10.0.2
; #@! TF.FileFunction,Plated,1,2,PTH
FMAT,2
METRIC
; #@! TA.AperFunction,Plated,PTH,ComponentDrill
T1C0.800
; #@! TA.AperFunction,Plated,PTH,ComponentDrill
T2C0.900
; #@! TA.AperFunction,Plated,PTH,ComponentDrill
T3C1.000
; #@! TA.AperFunction,Plated,PTH,ComponentDrill
T4C1.600
%
G90
G05
T1
X197.63Y-120.75
X197.9Y-100.5
X197.9Y-115.74
X200.44Y-100.5
X200.44Y-115.74
X202.98Y-100.5
X202.98Y-115.74
X205.25Y-120.75
X205.52Y-100.5
X205.52Y-115.74
X208.06Y-100.5
X208.06Y-115.74
X208.25Y-125.75
X210.6Y-100.5
X210.6Y-115.74
X213.14Y-100.5
X213.14Y-115.74
X213.25Y-125.75
X215.68Y-100.5
X215.68Y-115.74
X218.22Y-100.5
X218.22Y-115.74
X220.76Y-100.5
X220.76Y-115.74
X222.5Y-126.75
X223.3Y-100.5
X223.3Y-115.74
X225.84Y-100.5
X225.84Y-115.74
X227.5Y-126.75
X228.38Y-100.5
X228.38Y-115.74
X230.92Y-100.5
X230.92Y-115.74
X233.46Y-100.5
X233.46Y-115.74
X236.0Y-100.5
X236.0Y-115.74
X237.38Y-92.25
X238.54Y-100.5
X238.54Y-115.74
X241.08Y-100.5
X241.08Y-115.74
X242.37Y-124.5
X243.62Y-100.5
X243.62Y-115.74
X245.0Y-92.25
X246.16Y-100.5
X246.16Y-115.74
X247.25Y-124.5
T2
X238.96Y-85.25
X241.5Y-85.25
X262.46Y-26.75
X265.0Y-26.75
T3
X156.5Y-64.01
X156.5Y-66.55
X156.5Y-69.09
X156.5Y-71.63
X156.5Y-74.17
X156.5Y-76.71
X156.5Y-79.25
X156.5Y-81.79
X156.5Y-84.33
X156.5Y-86.87
X156.5Y-89.41
X156.5Y-91.95
X173.0Y-26.85
X173.0Y-29.39
X175.54Y-26.85
X175.54Y-29.39
X178.08Y-26.85
X178.08Y-29.39
X180.62Y-26.85
X180.62Y-29.39
X183.16Y-26.85
X183.16Y-29.39
X185.7Y-26.85
X185.7Y-29.39
X188.24Y-26.85
X188.24Y-29.39
X190.78Y-26.85
X190.78Y-29.39
X193.32Y-26.85
X193.32Y-29.39
X195.86Y-26.85
X195.86Y-29.39
X198.4Y-26.85
X198.4Y-29.39
X200.94Y-26.85
X200.94Y-29.39
X203.48Y-26.85
X203.48Y-29.39
X206.02Y-26.85
X206.02Y-29.39
X208.56Y-26.85
X208.56Y-29.39
X211.1Y-26.85
X211.1Y-29.39
X213.64Y-26.85
X213.64Y-29.39
X216.18Y-26.85
X216.18Y-29.39
X218.5Y-73.05
X218.5Y-75.59
X218.5Y-78.13
X218.5Y-80.67
X218.5Y-83.21
X218.5Y-85.75
X218.72Y-26.85
X218.72Y-29.39
X221.26Y-26.85
X221.26Y-29.39
X230.25Y-52.5
X230.25Y-55.04
X230.25Y-57.58
X230.25Y-60.12
X236.0Y-25.17
X236.0Y-27.71
X236.0Y-30.25
X236.0Y-32.79
X236.0Y-35.33
X259.75Y-49.17
X259.75Y-51.71
X259.75Y-54.25
T4
X250.42Y-77.5
X255.5Y-77.5
M30
